# xmcd CD database file
#
# Track frame offsets:
#	150
#	22660
#	39092
#	62865
#	79567
#	96840
#	115437
#	139415
#	160080
#
# Disc length: 2324 seconds
#
# Revision: 0
# Processed by: cddbd v1.5.1PL0 Copyright (c) Steve Scherf et al.
# Submitted via: CDex 1.51
#
DISCID=68091209
DTITLE=井上浩之 - 夜をめくって 〜時間の螺旋の中で〜
DYEAR=1992
DGENRE=JPop
TTITLE0=夜をめくって
TTITLE1=夏のかけら
TTITLE2=名前もない風
TTITLE3=カラー
TTITLE4=原因不明
TTITLE5=夢のかたち
TTITLE6=あの影法師
TTITLE7=あなたに会える場所
TTITLE8=Water
EXTD=YEAR: 1992
EXTT0=
EXTT1=
EXTT2=
EXTT3=
EXTT4=
EXTT5=
EXTT6=
EXTT7=
EXTT8=
PLAYORDER=
